<?xml version="1.0" encoding="utf-8"?>
<!-- Svg Vector Icons : http://www.onlinewebfonts.com/icon -->
<!DOCTYPE svg PUBLIC "-//W3C//DTD SVG 1.1//EN" "http://www.w3.org/Graphics/SVG/1.1/DTD/svg11.dtd">
<svg version="1.1" xmlns="http://www.w3.org/2000/svg" xmlns:xlink="http://www.w3.org/1999/xlink" x="0px" y="0px" viewBox="0 0 1000 1000" enable-background="new 0 0 1000 1000" xml:space="preserve">
<metadata> Svg Vector Icons : http://www.onlinewebfonts.com/icon </metadata>
<g><g><path d="M542.4,253.3c0-44.1,0-243.3,0-243.3h-32.8h-19.4h-32.7c0,0,0,199.2,0,243.3c0,44.1-82.9,97.6-82.9,160.5c0,62.8,0,517.4,0,533.4c0,16,10.7,42.8,34.8,42.8c16.4,0,56.7,0,80.9,0c11.5,0,19.4,0,19.4,0c24.3,0,64.5,0,80.9,0c24,0,34.8-26.7,34.8-42.8c0-16,0-470.6,0-533.4C625.4,350.9,542.4,297.4,542.4,253.3z M475.8,324.8c-5.4,7.3-11.4,16.6-17.9,27.2c-6.6,10.7-12.8,23.1-19.2,36.7c-2.4,6.9-4.9,14.1-7,21.4c-0.1,7.7-2.5,13.4-1.4,23c0.6,17.9,1.3,36.7,2.1,56.2c1.3,39,1.5,80.5,1.9,122.1c-0.1,83.1-2.6,166.3-6.5,228.6c-1.7,31.2-4.5,57.1-5.8,75.3c-1.6,18.2-3,28.6-3,28.6s-1.4-10.4-3-28.6c-1.3-18.2-4.1-44.1-5.8-75.3c-3.9-62.3-6.4-145.5-6.5-228.6c0.3-41.5,0.5-83.1,1.9-122.1c0.7-19.5,1.4-38.3,2.1-56.2c-0.3-8.3,2.8-19.6,4.6-28.5c3.5-8.4,7.3-16.3,10.9-23.7c4.4-6.8,8.6-13.3,12.7-19.5c4.6-5.6,8.9-11,13-16c8.5-9.8,16-18,22.6-24.4c13-13,21.3-19.3,21.3-19.3S486.2,309.9,475.8,324.8z"/></g><g></g><g></g><g></g><g></g><g></g><g></g><g></g><g></g><g></g><g></g><g></g><g></g><g></g><g></g><g></g></g>
</svg>